*
*
G04 PADS 9.5 Build Number: 522968 generated Gerber (RS-274-X) file*
G04 PC Version=2.1*
*
%IN "esp8266_2108.05.31.pcb"*%
*
%MOIN*%
*
%FSLAX35Y35*%
*
*
*
*
G04 PC Standard Apertures*
*
*
G04 Thermal Relief Aperture macro.*
%AMTER*
1,1,$1,0,0*
1,0,$1-$2,0,0*
21,0,$3,$4,0,0,45*
21,0,$3,$4,0,0,135*
%
*
*
G04 Annular Aperture macro.*
%AMANN*
1,1,$1,0,0*
1,0,$2,0,0*
%
*
*
G04 Odd Aperture macro.*
%AMODD*
1,1,$1,0,0*
1,0,$1-0.005,0,0*
%
*
*
G04 PC Custom Aperture Macros*
*
*
*
*
*
*
G04 PC Aperture Table*
*
%ADD018R,0.06X0.06*%
%ADD019C,0.07*%
%ADD055C,0.01*%
%ADD060C,0.001*%
%ADD084C,0.05724*%
%ADD168R,0.042X0.045*%
%ADD173R,0.10843X0.12811*%
%ADD175R,0.09661X0.10843*%
%ADD177R,0.045X0.042*%
%ADD179R,0.05331X0.03362*%
%ADD188R,0.06X0.06*%
%ADD256R,0.07X0.06*%
%ADD257R,0.16748X0.12024*%
%ADD273R,0.05X0.048*%
%ADD274R,0.048X0.05*%
%ADD275R,0.035X0.03874*%
%ADD276R,0.08874X0.04937*%
%ADD277R,0.08874X0.02575*%
%ADD278O,0.08874X0.05724*%
%ADD279R,0.04937X0.10843*%
%ADD280R,0.06X0.07*%
*
*
*
*
G04 PC Circuitry*
G04 Layer Name esp8266_2108.05.31.pcb - circuitry*
%LPD*%
*
*
G04 PC Custom Flashes*
G04 Layer Name esp8266_2108.05.31.pcb - flashes*
%LPD*%
*
*
G04 PC Circuitry*
G04 Layer Name esp8266_2108.05.31.pcb - circuitry*
%LPD*%
*
G54D18*
G01X186186Y168429D03*
G54D19*
X170182Y227156D03*
X160182D03*
X150182D03*
X140182D03*
X206906Y127992D03*
Y137992D03*
Y147992D03*
G54D55*
X101969Y245669D02*
X320472D01*
Y111811*
X101969*
Y245669*
X124803Y119685D02*
G75*
G03X124803I-5118J0D01*
G01X317717D02*
G03X317717I-5119J0D01*
G01Y237795D02*
G03X317717I-5119J0D01*
G01X124803D02*
G03X124803I-5118J0D01*
G54D60*
G54D84*
G01X123031Y188287D03*
Y169193D03*
G54D168*
X178444Y188579D03*
X172244D03*
X217570Y239995D03*
X211370D03*
G54D173*
X111945Y204579D03*
X131630D03*
G54D175*
X191907Y179413D03*
X172222D03*
G54D177*
X185899Y145529D03*
Y139329D03*
G54D179*
X182085Y194600D03*
Y198340D03*
Y202080D03*
X172243D03*
Y198340D03*
Y194600D03*
G54D188*
X194886Y168429D03*
G54D256*
X146542Y198318D03*
Y208318D03*
X155663Y198328D03*
Y208328D03*
X178554Y145556D03*
Y135556D03*
X188640Y227140D03*
Y217140D03*
X178542Y154202D03*
Y164202D03*
X169927Y154202D03*
Y164202D03*
G54D257*
X152209Y154218D03*
Y179415D03*
G54D273*
X262533Y150132D03*
Y143832D03*
X186177Y160511D03*
Y154211D03*
X192364Y145524D03*
Y139224D03*
X164927Y204628D03*
Y198328D03*
X196672Y195774D03*
Y202074D03*
X189210D03*
Y195774D03*
X196294Y220862D03*
Y227162D03*
X254665Y150100D03*
Y143800D03*
G54D274*
X246781Y150058D03*
X240481D03*
G54D275*
X273799Y240080D03*
X278299D03*
G54D276*
X172841Y122203D03*
X144888D03*
X223156Y214949D03*
Y207075D03*
Y199201D03*
Y191327D03*
Y183453D03*
Y175579D03*
G54D277*
X123622Y183858D03*
Y181496D03*
Y178740D03*
Y175984D03*
Y173622D03*
G54D278*
X112598Y193012D03*
X112205Y164469D03*
G54D279*
X286148Y228728D03*
X278274D03*
X270400D03*
X262526D03*
X254652D03*
X246778D03*
X238904D03*
X231030D03*
Y161799D03*
X238904D03*
X246778D03*
X254652D03*
X262526D03*
X270400D03*
X278274D03*
X286148D03*
G54D280*
X217566Y232302D03*
X207566D03*
G74*
X0Y0D02*
M02*
