*
*
G04 PADS 9.5 Build Number: 522968 generated Gerber (RS-274-X) file*
G04 PC Version=2.1*
*
%IN "esp8266_2108.05.31.pcb"*%
*
%MOIN*%
*
%FSLAX35Y35*%
*
*
*
*
G04 PC Standard Apertures*
*
*
G04 Thermal Relief Aperture macro.*
%AMTER*
1,1,$1,0,0*
1,0,$1-$2,0,0*
21,0,$3,$4,0,0,45*
21,0,$3,$4,0,0,135*
%
*
*
G04 Annular Aperture macro.*
%AMANN*
1,1,$1,0,0*
1,0,$2,0,0*
%
*
*
G04 Odd Aperture macro.*
%AMODD*
1,1,$1,0,0*
1,0,$1-0.005,0,0*
%
*
*
G04 PC Custom Aperture Macros*
*
*
*
*
*
*
G04 PC Aperture Table*
*
%ADD035C,0.06*%
%ADD038C,0.04724*%
%ADD054C,0.015*%
%ADD055C,0.01*%
%ADD060C,0.001*%
%ADD129C,0.01181*%
%ADD133C,0.0315*%
%ADD270O,0.07874X0.04724*%
*
*
*
*
G04 PC Circuitry*
G04 Layer Name esp8266_2108.05.31.pcb - circuitry*
%LPD*%
*
*
G04 PC Custom Flashes*
G04 Layer Name esp8266_2108.05.31.pcb - flashes*
%LPD*%
*
*
G04 PC Circuitry*
G04 Layer Name esp8266_2108.05.31.pcb - circuitry*
%LPD*%
*
G54D35*
G01X170182Y227156D03*
X160182D03*
X150182D03*
X140182D03*
X206906Y127992D03*
Y137992D03*
Y147992D03*
G54D38*
X123031Y188287D03*
Y169193D03*
G54D54*
X210558Y131645D02*
X209027Y130113D01*
X203253Y131645D02*
X204784Y130113D01*
G54D55*
X101969Y245669D02*
X320472D01*
Y111811*
X101969*
Y245669*
X124803Y119685D02*
G75*
G03X124803I-5118J0D01*
G01X317717D02*
G03X317717I-5119J0D01*
G01Y237795D02*
G03X317717I-5119J0D01*
G01X124803D02*
G03X124803I-5118J0D01*
G54D60*
G54D129*
G01X181012Y122238D02*
X260091D01*
X268262Y130409*
Y150132*
X196307Y215332D02*
Y218907D01*
X193205Y222009*
X165340*
X160193Y227156*
X160182*
X270400Y173580D02*
X261008Y182972D01*
X215499*
X196307Y202164*
Y215332*
X196307*
X127559Y169193D02*
G03X127559I-4528J0D01*
G01X316732Y128444D02*
Y229036D01*
G03X315920Y229583I-590J-0*
G01X304387Y241117D02*
G03X315920Y229583I8211J-3322D01*
G01X304387Y241117D02*
G03X303839Y241929I-548J222D01*
G01X128444*
G03X127897Y241117I0J-590*
G01X111473D02*
G03X127897I8212J-3322D01*
G01X111473D02*
G03X110926Y241929I-547J222D01*
G01X106299*
G03X105709Y241339I0J-590*
G01Y194980*
G03X106844Y194753I590J0*
G01X111024Y197539D02*
G03X106844Y194753I-0J-4527D01*
G01X111024Y197539D02*
X114173D01*
X118507Y191702D02*
G03X114173Y197539I-4334J1310D01*
G01X118507Y191702D02*
G03X119529Y191157I565J-171D01*
G01X118698Y189597D02*
G03X119529Y191157I4333J-1310D01*
G01X118698Y189597D02*
G03X117675Y190142I-566J171D01*
G01X114173Y188484D02*
G03X117675Y190142I0J4528D01*
G01X114173Y188484D02*
X111024D01*
X106844Y191270D02*
G03X111024Y188484I4180J1742D01*
G01X106844Y191270D02*
G03X105709Y191043I-545J-227D01*
G01Y167196*
G03X106799Y166881I590J0*
G01X110630Y168996D02*
G03X106799Y166881I-0J-4527D01*
G01X110630Y168996D02*
X113780D01*
Y159941D02*
G03Y168996I-0J4528D01*
G01Y159941D02*
X110630D01*
X106799Y162056D02*
G03X110630Y159941I3831J2413D01*
G01X106799Y162056D02*
G03X105709Y161741I-500J-315D01*
G01Y116142*
G03X106299Y115551I590J-0*
G01X110926*
G03X111473Y116363I-0J591*
G01X127897D02*
G03X111473I-8212J3322D01*
G01X127897D02*
G03X128444Y115551I547J-221D01*
G01X303839*
G03X304387Y116363I0J591*
G01X315920Y127897D02*
G03X304387Y116363I-3322J-8212D01*
G01X315920Y127897D02*
G03X316732Y128444I222J547D01*
G01X271152Y147758D02*
G03X265372I-2890J2374D01*
G01X271152D02*
G03X271018Y147383I456J-375D01*
G01Y130409*
X270211Y128461D02*
G03X271018Y130409I-1949J1948D01*
G01X270211Y128461D02*
X262039Y120289D01*
X260091Y119482D02*
G03X262039Y120289I-0J2756D01*
G01X260091Y119482D02*
X183761D01*
G03X183386Y119348I-0J-590*
G01Y125128D02*
G03Y119348I-2374J-2890D01*
G01Y125128D02*
G03X183761Y124994I375J456D01*
G01X201677*
G03X202214Y125831I0J590*
G01X204347Y132479D02*
G03X202214Y125832I2559J-4487D01*
G01X204347Y132479D02*
G03Y133505I-293J513D01*
G01Y142479D02*
G03Y133505I2559J-4487D01*
G01Y142479D02*
G03Y143505I-293J513D01*
G01X209464D02*
G03X204347I-2558J4487D01*
G01X209464D02*
G03Y142479I293J-513D01*
G01Y133505D02*
G03Y142479I-2558J4487D01*
G01Y133505D02*
G03Y132479I293J-513D01*
G01X211597Y125832D02*
G03X209464Y132479I-4691J2160D01*
G01X211597Y125831D02*
G03X212134Y124994I537J-247D01*
G01X258704*
G03X259122Y125167I0J590*
G01X265333Y131378*
G03X265506Y131796I-417J418*
G01Y147383*
G03X265372Y147758I-590J0*
G01X266678Y173215D02*
G03X270765Y177302I3722J365D01*
G01X266678Y173215D02*
G03X266508Y173575I-588J-58D01*
G01X260039Y180044*
G03X259621Y180217I-418J-418*
G01X215499*
X213550Y181024D02*
G03X215499Y180217I1949J1948D01*
G01X213550Y181024D02*
X194358Y200215D01*
X193551Y202164D02*
G03X194358Y200215I2756J0D01*
G01X193551Y202164D02*
Y212583D01*
G03X193417Y212958I-590J0*
G01X193210Y217429D02*
G03X193417Y212958I3097J-2097D01*
G01X193210Y217429D02*
G03X193139Y218178I-489J331D01*
G01X192236Y219080*
G03X191818Y219253I-418J-417*
G01X165340*
X163391Y220060D02*
G03X165340Y219253I1949J1949D01*
G01X163391Y220060D02*
X161554Y221897D01*
G03X161039Y222062I-417J-417*
G01X155695Y224597D02*
G03X161039Y222062I4487J2559D01*
G01X155695Y224597D02*
G03X154669I-513J-292D01*
G01X145695D02*
G03X154669I4487J2559D01*
G01X145695D02*
G03X144669I-513J-292D01*
G01Y229715D02*
G03Y224597I-4487J-2559D01*
G01Y229715D02*
G03X145695I513J293D01*
G01X154669D02*
G03X145695I-4487J-2559D01*
G01X154669D02*
G03X155695I513J293D01*
G01X164669D02*
G03X155695I-4487J-2559D01*
G01X164669D02*
G03X165695I513J293D01*
G01X175089Y225540D02*
G03X165695Y229715I-4907J1616D01*
G01X175089Y225540D02*
G03X175649Y224765I560J-184D01*
G01X193205*
X195153Y223958D02*
G03X193205Y224765I-1948J-1949D01*
G01X195153Y223958D02*
X198256Y220856D01*
X199063Y218907D02*
G03X198256Y220856I-2756J-0D01*
G01X199063Y218907D02*
Y218081D01*
G03X199197Y217706I590J-0*
G01Y212958D02*
G03Y217706I-2890J2374D01*
G01Y212958D02*
G03X199063Y212583I457J-375D01*
G01Y203550*
G03X199236Y203133I591J0*
G01X216467Y185901*
G03X216885Y185728I418J418*
G01X261008*
X262956Y184921D02*
G03X261008Y185728I-1948J-1949D01*
G01X262956Y184921D02*
X270405Y177472D01*
G03X270765Y177302I418J418*
G01X127559Y169193D02*
G03X127559I-4528J0D01*
G01X175158Y228545D02*
X316732D01*
X175338Y227482D02*
X316732D01*
X175295Y226419D02*
X316732D01*
X175059Y225356D02*
X316732D01*
X194748Y224293D02*
X316732D01*
X195882Y223230D02*
X316732D01*
X196945Y222167D02*
X316732D01*
X198008Y221104D02*
X316732D01*
X198819Y220041D02*
X316732D01*
X199062Y218978D02*
X316732D01*
X199087Y217915D02*
X316732D01*
X199725Y216852D02*
X316732D01*
X200019Y215789D02*
X316732D01*
X199998Y214726D02*
X316732D01*
X199654Y213663D02*
X316732D01*
X199063Y212600D02*
X316732D01*
X199063Y211537D02*
X316732D01*
X199063Y210474D02*
X316732D01*
X199063Y209411D02*
X316732D01*
X199063Y208348D02*
X316732D01*
X199063Y207285D02*
X316732D01*
X199063Y206222D02*
X316732D01*
X199063Y205159D02*
X316732D01*
X199063Y204096D02*
X316732D01*
X199336Y203033D02*
X316732D01*
X200399Y201970D02*
X316732D01*
X201462Y200907D02*
X316732D01*
X202525Y199844D02*
X316732D01*
X203588Y198781D02*
X316732D01*
X204651Y197718D02*
X316732D01*
X205714Y196655D02*
X316732D01*
X206777Y195592D02*
X316732D01*
X207840Y194529D02*
X316732D01*
X208903Y193466D02*
X316732D01*
X209966Y192403D02*
X316732D01*
X211029Y191340D02*
X316732D01*
X212092Y190277D02*
X316732D01*
X213155Y189214D02*
X316732D01*
X214218Y188151D02*
X316732D01*
X215281Y187088D02*
X316732D01*
X216344Y186025D02*
X316732D01*
X262915Y184962D02*
X316732D01*
X263979Y183899D02*
X316732D01*
X265042Y182836D02*
X316732D01*
X266105Y181773D02*
X316732D01*
X267167Y180710D02*
X316732D01*
X268230Y179647D02*
X316732D01*
X269293Y178584D02*
X316732D01*
X270356Y177521D02*
X316732D01*
X272789Y176458D02*
X316732D01*
X273670Y175395D02*
X316732D01*
X274064Y174332D02*
X316732D01*
X274127Y173269D02*
X316732D01*
X273879Y172206D02*
X316732D01*
X273237Y171143D02*
X316732D01*
X271719Y170080D02*
X316732D01*
X127556Y169017D02*
X316732D01*
X127386Y167954D02*
X316732D01*
X126930Y166891D02*
X316732D01*
X126061Y165828D02*
X316732D01*
X123977Y164765D02*
X316732D01*
X118242Y163702D02*
X316732D01*
X117921Y162639D02*
X316732D01*
X117263Y161576D02*
X316732D01*
X115983Y160513D02*
X316732D01*
X105709Y159450D02*
X316732D01*
X105709Y158387D02*
X316732D01*
X105709Y157324D02*
X316732D01*
X105709Y156261D02*
X316732D01*
X105709Y155198D02*
X316732D01*
X105709Y154135D02*
X316732D01*
X270574Y153072D02*
X316732D01*
X271497Y152009D02*
X316732D01*
X271912Y150946D02*
X316732D01*
X271994Y149883D02*
X316732D01*
X271765Y148820D02*
X316732D01*
X271152Y147757D02*
X316732D01*
X271018Y146694D02*
X316732D01*
X271018Y145631D02*
X316732D01*
X271018Y144568D02*
X316732D01*
X271018Y143505D02*
X316732D01*
X271018Y142442D02*
X316732D01*
X271018Y141379D02*
X316732D01*
X271018Y140316D02*
X316732D01*
X271018Y139253D02*
X316732D01*
X271018Y138190D02*
X316732D01*
X271018Y137127D02*
X316732D01*
X271018Y136064D02*
X316732D01*
X271018Y135001D02*
X316732D01*
X271018Y133938D02*
X316732D01*
X271018Y132875D02*
X316732D01*
X271018Y131812D02*
X316732D01*
X271018Y130749D02*
X316732D01*
X270921Y129686D02*
X316732D01*
X270361Y128623D02*
X316732D01*
X315994Y229608D02*
X316290D01*
X174729D02*
X309217D01*
X269310Y127560D02*
X308543D01*
X173968Y230671D02*
X307335D01*
X268247Y126497D02*
X306936D01*
X172576Y231734D02*
X306139D01*
X267184Y125434D02*
X305859D01*
X126998Y232797D02*
X305285D01*
X266121Y124371D02*
X305081D01*
X127621Y233860D02*
X304662D01*
X265058Y123308D02*
X304515D01*
X127855Y241301D02*
X304428D01*
X127921Y115867D02*
X304362D01*
X128065Y234923D02*
X304219D01*
X128104Y116930D02*
X304179D01*
X263995Y122245D02*
X304118D01*
X128200Y240238D02*
X304083D01*
X128356Y235986D02*
X303927D01*
X128380Y117993D02*
X303903D01*
X262932Y121182D02*
X303868D01*
X128435Y239175D02*
X303848D01*
X128512Y237049D02*
X303772D01*
X182978Y119056D02*
X303762D01*
X261853Y120119D02*
X303751D01*
X128538Y238112D02*
X303746D01*
X127471Y170080D02*
X269081D01*
X127118Y171143D02*
X267563D01*
X126411Y172206D02*
X266921D01*
X125002Y173269D02*
X266670D01*
X207840Y153072D02*
X265950D01*
X105709Y174332D02*
X265751D01*
X211905Y146694D02*
X265506D01*
X211500Y145631D02*
X265506D01*
X210773Y144568D02*
X265506D01*
X209465Y143505D02*
X265506D01*
X209528Y142442D02*
X265506D01*
X210805Y141379D02*
X265506D01*
X211518Y140316D02*
X265506D01*
X211915Y139253D02*
X265506D01*
X212067Y138190D02*
X265506D01*
X211998Y137127D02*
X265506D01*
X211698Y136064D02*
X265506D01*
X211117Y135001D02*
X265506D01*
X210107Y133938D02*
X265506D01*
X209178Y132875D02*
X265506D01*
X210382Y131812D02*
X265506D01*
X212066Y147757D02*
X265372D01*
X210153Y152009D02*
X265027D01*
X212004Y148820D02*
X264759D01*
X211273Y130749D02*
X264704D01*
X105709Y175395D02*
X264688D01*
X211143Y150946D02*
X264612D01*
X211712Y149883D02*
X264530D01*
X211785Y129686D02*
X263641D01*
X105709Y176458D02*
X263625D01*
X212032Y128623D02*
X262578D01*
X105709Y177521D02*
X262562D01*
X212053Y127560D02*
X261515D01*
X105709Y178584D02*
X261499D01*
X211850Y126497D02*
X260452D01*
X105709Y179647D02*
X260436D01*
X211563Y125434D02*
X259389D01*
X105709Y180710D02*
X213925D01*
X105709Y181773D02*
X212801D01*
X105709Y182836D02*
X211738D01*
X124145Y183899D02*
X210675D01*
X126104Y184962D02*
X209612D01*
X126953Y186025D02*
X208549D01*
X127397Y187088D02*
X207486D01*
X127557Y188151D02*
X206423D01*
X105709Y153072D02*
X205971D01*
X127463Y189214D02*
X205360D01*
X105709Y132875D02*
X204633D01*
X105709Y143505D02*
X204346D01*
X127099Y190277D02*
X204297D01*
X105709Y142442D02*
X204283D01*
X105709Y133938D02*
X203704D01*
X105709Y152009D02*
X203658D01*
X105709Y131812D02*
X203429D01*
X126375Y191340D02*
X203234D01*
X105709Y144568D02*
X203038D01*
X105709Y141379D02*
X203006D01*
X105709Y135001D02*
X202694D01*
X105709Y150946D02*
X202668D01*
X105709Y130749D02*
X202538D01*
X105709Y145631D02*
X202311D01*
X105709Y140316D02*
X202293D01*
X182954Y125434D02*
X202248D01*
X124919Y192403D02*
X202171D01*
X105709Y136064D02*
X202113D01*
X105709Y149883D02*
X202099D01*
X105709Y129686D02*
X202026D01*
X125347Y126497D02*
X201961D01*
X105709Y146694D02*
X201906D01*
X105709Y139253D02*
X201896D01*
X105709Y137127D02*
X201813D01*
X105709Y148820D02*
X201807D01*
X105709Y128623D02*
X201779D01*
X123741Y127560D02*
X201758D01*
X105709Y147757D02*
X201745D01*
X105709Y138190D02*
X201744D01*
X118678Y193466D02*
X201108D01*
X118439Y194529D02*
X200045D01*
X117894Y195592D02*
X198982D01*
X116862Y196655D02*
X197919D01*
X105709Y197718D02*
X196856D01*
X105709Y198781D02*
X195793D01*
X105709Y199844D02*
X194730D01*
X105709Y200907D02*
X193855D01*
X105709Y201970D02*
X193558D01*
X105709Y211537D02*
X193551D01*
X105709Y210474D02*
X193551D01*
X105709Y209411D02*
X193551D01*
X105709Y208348D02*
X193551D01*
X105709Y207285D02*
X193551D01*
X105709Y206222D02*
X193551D01*
X105709Y205159D02*
X193551D01*
X105709Y204096D02*
X193551D01*
X105709Y203033D02*
X193551D01*
X105709Y212600D02*
X193551D01*
X105709Y217915D02*
X193291D01*
X105709Y213663D02*
X192960D01*
X105709Y216852D02*
X192889D01*
X105709Y214726D02*
X192616D01*
X105709Y215789D02*
X192595D01*
X105709Y218978D02*
X192339D01*
X126424Y125434D02*
X179070D01*
X128521Y119056D02*
X179046D01*
X127202Y124371D02*
X177940D01*
X128533Y120119D02*
X177930D01*
X127768Y123308D02*
X177428D01*
X128416Y121182D02*
X177424D01*
X128165Y122245D02*
X177272D01*
X162576Y231734D02*
X167789D01*
X163968Y230671D02*
X166397D01*
X164748Y229608D02*
X165617D01*
X105709Y220041D02*
X163411D01*
X105709Y221104D02*
X162348D01*
X151519Y222167D02*
X158846D01*
X152576Y231734D02*
X157789D01*
X153539Y223230D02*
X156826D01*
X153968Y230671D02*
X156397D01*
X154481Y224293D02*
X155883D01*
X154748Y229608D02*
X155617D01*
X141519Y222167D02*
X148846D01*
X142576Y231734D02*
X147789D01*
X143539Y223230D02*
X146826D01*
X143968Y230671D02*
X146397D01*
X144481Y224293D02*
X145883D01*
X144748Y229608D02*
X145617D01*
X105709Y222167D02*
X138846D01*
X126145Y231734D02*
X137789D01*
X105709Y223230D02*
X136826D01*
X124949Y230671D02*
X136397D01*
X105709Y224293D02*
X135883D01*
X123066Y229608D02*
X135636D01*
X105709Y225356D02*
X135341D01*
X105709Y228545D02*
X135207D01*
X105709Y226419D02*
X135070D01*
X105709Y227482D02*
X135027D01*
X118297Y164765D02*
X122086D01*
X105709Y183899D02*
X121918D01*
X118660Y192403D02*
X121144D01*
X105709Y173269D02*
X121061D01*
X118098Y165828D02*
X120002D01*
X105709Y184962D02*
X119959D01*
X118514Y191340D02*
X119688D01*
X105709Y172206D02*
X119652D01*
X117604Y166891D02*
X119133D01*
X105709Y186025D02*
X119110D01*
X105709Y171143D02*
X118945D01*
X116669Y167954D02*
X118677D01*
X105709Y187088D02*
X118666D01*
X116638Y189214D02*
X118600D01*
X105709Y170080D02*
X118592D01*
X105709Y169017D02*
X118507D01*
X105709Y188151D02*
X118506D01*
X117832Y190277D02*
X118432D01*
X105709Y229608D02*
X116304D01*
X105709Y127560D02*
X115629D01*
X105709Y230671D02*
X114421D01*
X105709Y126497D02*
X114023D01*
X105709Y231734D02*
X113226D01*
X105709Y125434D02*
X112946D01*
X105709Y232797D02*
X112372D01*
X105709Y124371D02*
X112168D01*
X105709Y233860D02*
X111749D01*
X105709Y123308D02*
X111602D01*
X105709Y241301D02*
X111515D01*
X105776Y115867D02*
X111449D01*
X105709Y234923D02*
X111305D01*
X105709Y116930D02*
X111266D01*
X105709Y122245D02*
X111205D01*
X105709Y240238D02*
X111170D01*
X105709Y235986D02*
X111014D01*
X105709Y117993D02*
X110990D01*
X105709Y121182D02*
X110954D01*
X105709Y239175D02*
X110935D01*
X105709Y237049D02*
X110858D01*
X105709Y119056D02*
X110849D01*
X105709Y120119D02*
X110837D01*
X105709Y238112D02*
X110832D01*
X105709Y189214D02*
X108559D01*
X105709Y160513D02*
X108427D01*
X105709Y196655D02*
X108335D01*
X105709Y167954D02*
X107740D01*
X105709Y190277D02*
X107415D01*
X105709Y195592D02*
X107303D01*
X105709Y161576D02*
X107147D01*
X105789Y191340D02*
X106810D01*
X105794Y166891D02*
X106805D01*
X105919Y194529D02*
X106680D01*
G54D133*
X127577Y129737D03*
X109138Y130607D03*
X134948Y139591D03*
X137041Y122198D03*
X159583Y121562D03*
X151582Y135826D03*
X212617Y117358D03*
X212622Y127988D03*
X170783Y135556D03*
X185899Y134226D03*
X181012Y122238D03*
X288858Y138033D03*
X279986Y127596D03*
X249197Y128465D03*
X231454Y127944D03*
X284336Y117197D03*
X258743Y117751D03*
X232706Y117087D03*
X309732Y137337D03*
X303122Y127422D03*
X300583Y117499D03*
X107743Y174287D03*
X108289Y183026D03*
X118394Y216890D03*
X127577Y151307D03*
X115424Y175971D03*
X111945Y214076D03*
X116427Y141269D03*
X110878Y151829D03*
X199866Y179340D03*
X218332Y168347D03*
X180437Y217140D03*
X155954Y216547D03*
X146542Y216608D03*
X196672Y190885D03*
X195604Y169234D03*
X160917Y164251D03*
X177331Y198316D03*
X196307Y215332D03*
X295967Y164945D03*
X295110Y176522D03*
X278388D03*
X292966Y189814D03*
X275815Y190671D03*
X256520Y189814D03*
X235940Y189385D03*
X290822Y202248D03*
X274958Y200961D03*
X255234Y202248D03*
X236368Y200961D03*
X289107Y213396D03*
X271956Y212967D03*
X254377Y213396D03*
X236797Y212967D03*
X255116Y174108D03*
X234508Y173222D03*
X290423Y149513D03*
X234278Y150063D03*
X245472Y207483D03*
X270400Y173580D03*
X268262Y150132D03*
X314299Y166441D03*
X314404Y177379D03*
X312689Y191100D03*
X306258Y201819D03*
X304971Y213396D03*
X313733Y150209D03*
X121944Y227541D03*
X108125Y227046D03*
X134163Y227160D03*
X201403Y232302D03*
X204864Y239995D03*
X141607Y240923D03*
X163455Y240377D03*
X296736Y226651D03*
X291162Y237799D03*
X311743Y225793D03*
X301495Y232903D03*
G54D270*
X112598Y193012D03*
X112205Y164469D03*
G74*
X0Y0D02*
M02*
