%
T1C.01575F095S3
X010914Y013061
X011643Y014127
X012758Y012974
X013495Y013959
X013704Y01222
X015158Y013583
X015958Y012156
X017078Y013556
X018101Y012224
X01859Y013423
X021262Y011736
X021262Y012799
X023145Y012794
X023271Y011709
X02492Y012847
X025874Y011775
X027999Y01276
X028434Y01172
X028886Y013803
X030058Y01175
X030312Y012742
X030973Y013734
X03143Y016644
X031373Y015021
X029597Y016495
X029042Y014951
X026826Y015013
X023428Y015006
X016092Y016425
X012758Y015131
X011088Y015183
X010774Y017429
X010829Y018303
X011542Y017597
X01956Y016923
X019667Y019088
X019987Y017934
X021833Y016835
X023451Y017322
X023594Y018939
X025512Y017411
X025652Y018981
X02704Y017358
X027582Y019067
X027839Y017652
X029297Y018981
X029511Y017652
X031269Y01911
X03144Y017738
X030626Y020182
X030497Y02134
X029082Y020225
X028911Y02134
X027496Y020096
X027196Y021297
X025523Y020225
X025438Y02134
X024547Y020748
X02368Y021297
X023637Y020096
X019631Y021533
X017733Y019832
X015595Y021655
X014654Y021661
X011839Y021689
X011194Y021408
X010812Y022705
X012194Y022754
X013416Y022716
X014161Y024092
X016346Y024038
X018044Y021714
X02014Y02323
X020486Y023999
X029116Y02378
X029674Y022665
X030149Y02329
X031174Y022579
T2C.0315F197S55
X012303Y018829
X012303Y016919
X011181Y019301G85X011339Y019301
X011142Y016447G85X011299Y016447
T3C.035F197S55
X020691Y012799
X020691Y013799
X020691Y014799
X017018Y022716
X016018Y022716
X015018Y022716
X014018Y022716
M30
